HIERARCHY
ROOT Hips
{
  OFFSET 347.361 87.9447 215.108
  CHANNELS 6 Xposition Yposition Zposition Zrotation Xrotation Yrotation
  JOINT RightUpLeg
  {
    OFFSET -9.26273 -1.5987 0.0275938
    CHANNELS 6 Xposition Yposition Zposition Zrotation Xrotation Yrotation
    JOINT RightLeg
    {
      OFFSET 0.028019 -41.8971 0.019883
      CHANNELS 6 Xposition Yposition Zposition Zrotation Xrotation Yrotation
      JOINT RightFoot
      {
        OFFSET 0.348771 -42.3721 0.821663
        CHANNELS 6 Xposition Yposition Zposition Zrotation Xrotation Yrotation
        End Site
        {
          OFFSET 0 -7.69 17.5
        }
      }
    }
  }
  JOINT LeftUpLeg
  {
    OFFSET 9.27388 -1.59201 -0.047544
    CHANNELS 6 Xposition Yposition Zposition Zrotation Xrotation Yrotation
    JOINT LeftLeg
    {
      OFFSET 0.052168 -41.8958 0.0537944
      CHANNELS 6 Xposition Yposition Zposition Zrotation Xrotation Yrotation
      JOINT LeftFoot
      {
        OFFSET 0.216535 -41.5604 -0.688939
        CHANNELS 6 Xposition Yposition Zposition Zrotation Xrotation Yrotation
        End Site
        {
          OFFSET 0 -7.69 17.5
        }
      }
    }
  }
  JOINT Spine
  {
    OFFSET 0.0383244 14.3029 0.0425452
    CHANNELS 6 Xposition Yposition Zposition Zrotation Xrotation Yrotation
    JOINT Spine1
    {
      OFFSET 0.0211658 9.70598 0.00781995
      CHANNELS 6 Xposition Yposition Zposition Zrotation Xrotation Yrotation
      JOINT Spine2
      {
        OFFSET 0.0410706 10.115 0.0227486
        CHANNELS 6 Xposition Yposition Zposition Zrotation Xrotation Yrotation
        JOINT Spine3
        {
          OFFSET 0.0474968 9.71803 0.0270037
          CHANNELS 6 Xposition Yposition Zposition Zrotation Xrotation Yrotation
          JOINT Neck
          {
            OFFSET 0.0485557 10.3921 0.0356073
            CHANNELS 6 Xposition Yposition Zposition Zrotation Xrotation Yrotation
            JOINT Head
            {
              OFFSET 0.0332182 9.46535 0.0161552
              CHANNELS 6 Xposition Yposition Zposition Zrotation Xrotation Yrotation
              End Site
              {
                OFFSET 0 15.95 0
              }
            }
          }
          JOINT RightShoulder
          {
            OFFSET -3.19358 6.92903 -0.0134906
            CHANNELS 6 Xposition Yposition Zposition Zrotation Xrotation Yrotation
            JOINT RightArm
            {
              OFFSET -12.7846 -0.00272034 -0.00944064
              CHANNELS 6 Xposition Yposition Zposition Zrotation Xrotation Yrotation
              JOINT RightForeArm
              {
                OFFSET -26.5055 -0.0224929 0.077677
                CHANNELS 6 Xposition Yposition Zposition Zrotation Xrotation Yrotation
                JOINT RightHand
                {
                  OFFSET -25.9958 0.000824859 0.0512335
                  CHANNELS 6 Xposition Yposition Zposition Zrotation Xrotation Yrotation
                  JOINT RightHandThumb1
                  {
                    OFFSET -2.48905 0.190105 3.12053
                    CHANNELS 6 Xposition Yposition Zposition Zrotation Xrotation Yrotation
                    JOINT RightHandThumb2
                    {
                      OFFSET -3.68274 0 0
                      CHANNELS 6 Xposition Yposition Zposition Zrotation Xrotation Yrotation
                      JOINT RightHandThumb3
                      {
                        OFFSET -2.55832 0 0
                        CHANNELS 6 Xposition Yposition Zposition Zrotation Xrotation Yrotation
                        End Site
                        {
                          OFFSET -2.194 0 0
                        }
                      }
                    }
                  }
                  JOINT RightInHandIndex
                  {
                    OFFSET -3.22368 0.508421 1.97842
                    CHANNELS 6 Xposition Yposition Zposition Zrotation Xrotation Yrotation
                    JOINT RightHandIndex1
                    {
                      OFFSET -5.21684 -0.091368 0.999158
                      CHANNELS 6 Xposition Yposition Zposition Zrotation Xrotation Yrotation
                      JOINT RightHandIndex2
                      {
                        OFFSET -3.61937 0 0
                        CHANNELS 6 Xposition Yposition Zposition Zrotation Xrotation Yrotation
                        JOINT RightHandIndex3
                        {
                          OFFSET -2.0521 0 0
                          CHANNELS 6 Xposition Yposition Zposition Zrotation Xrotation Yrotation
                          End Site
                          {
                            OFFSET -1.805 0 0
                          }
                        }
                      }
                    }
                  }
                  JOINT RightInHandMiddle
                  {
                    OFFSET -3.38211 0.517263 0.756737
                    CHANNELS 6 Xposition Yposition Zposition Zrotation Xrotation Yrotation
                    JOINT RightHandMiddle1
                    {
                      OFFSET -5.17411 -0.084 0.313895
                      CHANNELS 6 Xposition Yposition Zposition Zrotation Xrotation Yrotation
                      JOINT RightHandMiddle2
                      {
                        OFFSET -3.94947 0 0
                        CHANNELS 6 Xposition Yposition Zposition Zrotation Xrotation Yrotation
                        JOINT RightHandMiddle3
                        {
                          OFFSET -2.47579 0 0
                          CHANNELS 6 Xposition Yposition Zposition Zrotation Xrotation Yrotation
                          End Site
                          {
                            OFFSET -1.975 0 0
                          }
                        }
                      }
                    }
                  }
                  JOINT RightInHandRing
                  {
                    OFFSET -3.36516 0.537895 -0.128947
                    CHANNELS 6 Xposition Yposition Zposition Zrotation Xrotation Yrotation
                    JOINT RightHandRing1
                    {
                      OFFSET -4.63474 -0.022105 -0.478947
                      CHANNELS 6 Xposition Yposition Zposition Zrotation Xrotation Yrotation
                      JOINT RightHandRing2
                      {
                        OFFSET -3.44238 0 0
                        CHANNELS 6 Xposition Yposition Zposition Zrotation Xrotation Yrotation
                        JOINT RightHandRing3
                        {
                          OFFSET -2.3881 0 0
                          CHANNELS 6 Xposition Yposition Zposition Zrotation Xrotation Yrotation
                          End Site
                          {
                            OFFSET -1.857 0 0
                          }
                        }
                      }
                    }
                  }
                  JOINT RightInHandPinky
                  {
                    OFFSET -3.16105 0.469368 -1.20179
                    CHANNELS 6 Xposition Yposition Zposition Zrotation Xrotation Yrotation
                    JOINT RightHandPinky1
                    {
                      OFFSET -4.14105 -0.022105 -1.09053
                      CHANNELS 6 Xposition Yposition Zposition Zrotation Xrotation Yrotation
                      JOINT RightHandPinky2
                      {
                        OFFSET -2.75653 0 0
                        CHANNELS 6 Xposition Yposition Zposition Zrotation Xrotation Yrotation
                        JOINT RightHandPinky3
                        {
                          OFFSET -1.74189 0 0
                          CHANNELS 6 Xposition Yposition Zposition Zrotation Xrotation Yrotation
                          End Site
                          {
                            OFFSET -1.645 0 0
                          }
                        }
                      }
                    }
                  }
                }
              }
            }
          }
          JOINT LeftShoulder
          {
            OFFSET 3.25013 6.93947 -0.0102751
            CHANNELS 6 Xposition Yposition Zposition Zrotation Xrotation Yrotation
            JOINT LeftArm
            {
              OFFSET 12.7758 -0.0145532 -0.0598374
              CHANNELS 6 Xposition Yposition Zposition Zrotation Xrotation Yrotation
              JOINT LeftForeArm
              {
                OFFSET 26.507 -0.0319068 0.00271185
                CHANNELS 6 Xposition Yposition Zposition Zrotation Xrotation Yrotation
                JOINT LeftHand
                {
                  OFFSET 25.9936 -0.0554971 -0.000968744
                  CHANNELS 6 Xposition Yposition Zposition Zrotation Xrotation Yrotation
                  JOINT LeftHandThumb1
                  {
                    OFFSET 2.48905 0.190105 3.12053
                    CHANNELS 6 Xposition Yposition Zposition Zrotation Xrotation Yrotation
                    JOINT LeftHandThumb2
                    {
                      OFFSET 3.68274 0 0
                      CHANNELS 6 Xposition Yposition Zposition Zrotation Xrotation Yrotation
                      JOINT LeftHandThumb3
                      {
                        OFFSET 2.55832 0 0
                        CHANNELS 6 Xposition Yposition Zposition Zrotation Xrotation Yrotation
                        End Site
                        {
                          OFFSET 2.194 0 0
                        }
                      }
                    }
                  }
                  JOINT LeftInHandIndex
                  {
                    OFFSET 3.22368 0.508421 1.97842
                    CHANNELS 6 Xposition Yposition Zposition Zrotation Xrotation Yrotation
                    JOINT LeftHandIndex1
                    {
                      OFFSET 5.21684 -0.091368 0.999158
                      CHANNELS 6 Xposition Yposition Zposition Zrotation Xrotation Yrotation
                      JOINT LeftHandIndex2
                      {
                        OFFSET 3.61937 0 0
                        CHANNELS 6 Xposition Yposition Zposition Zrotation Xrotation Yrotation
                        JOINT LeftHandIndex3
                        {
                          OFFSET 2.0521 0 0
                          CHANNELS 6 Xposition Yposition Zposition Zrotation Xrotation Yrotation
                          End Site
                          {
                            OFFSET 1.805 0 0
                          }
                        }
                      }
                    }
                  }
                  JOINT LeftInHandMiddle
                  {
                    OFFSET 3.38211 0.517263 0.756737
                    CHANNELS 6 Xposition Yposition Zposition Zrotation Xrotation Yrotation
                    JOINT LeftHandMiddle1
                    {
                      OFFSET 5.17411 -0.084 0.313895
                      CHANNELS 6 Xposition Yposition Zposition Zrotation Xrotation Yrotation
                      JOINT LeftHandMiddle2
                      {
                        OFFSET 3.94947 0 0
                        CHANNELS 6 Xposition Yposition Zposition Zrotation Xrotation Yrotation
                        JOINT LeftHandMiddle3
                        {
                          OFFSET 2.47579 0 0
                          CHANNELS 6 Xposition Yposition Zposition Zrotation Xrotation Yrotation
                          End Site
                          {
                            OFFSET 1.975 0 0
                          }
                        }
                      }
                    }
                  }
                  JOINT LeftInHandRing
                  {
                    OFFSET 3.36516 0.537895 -0.128947
                    CHANNELS 6 Xposition Yposition Zposition Zrotation Xrotation Yrotation
                    JOINT LeftHandRing1
                    {
                      OFFSET 4.63474 -0.022105 -0.478947
                      CHANNELS 6 Xposition Yposition Zposition Zrotation Xrotation Yrotation
                      JOINT LeftHandRing2
                      {
                        OFFSET 3.44238 0 0
                        CHANNELS 6 Xposition Yposition Zposition Zrotation Xrotation Yrotation
                        JOINT LeftHandRing3
                        {
                          OFFSET 2.3881 0 0
                          CHANNELS 6 Xposition Yposition Zposition Zrotation Xrotation Yrotation
                          End Site
                          {
                            OFFSET 1.857 0 0
                          }
                        }
                      }
                    }
                  }
                  JOINT LeftInHandPinky
                  {
                    OFFSET 3.16105 0.469368 -1.20179
                    CHANNELS 6 Xposition Yposition Zposition Zrotation Xrotation Yrotation
                    JOINT LeftHandPinky1
                    {
                      OFFSET 4.14105 -0.022105 -1.09053
                      CHANNELS 6 Xposition Yposition Zposition Zrotation Xrotation Yrotation
                      JOINT LeftHandPinky2
                      {
                        OFFSET 2.75653 0 0
                        CHANNELS 6 Xposition Yposition Zposition Zrotation Xrotation Yrotation
                        JOINT LeftHandPinky3
                        {
                          OFFSET 1.74189 0 0
                          CHANNELS 6 Xposition Yposition Zposition Zrotation Xrotation Yrotation
                          End Site
                          {
                            OFFSET 1.645 0 0
                          }
                        }
                      }
                    }
                  }
                }
              }
            }
          }
        }
      }
    }
  }
}
MOTION
Frames:	3
Frame Time:	0.00833333
329.478 85.101 193.844 28.8515 -0.0121515 -113.098 -9.29438 -1.5284 -0.0554247 31.5716 -43.7911 25.1376 -0.0286817 -41.8752 0.137742 -6.18309 22.6743 0.48002 0.580759 -37.6529 0.17135 2.8391 -0.215882 39.9389 9.28918 -1.55245 0.105863 37.04 -4.39405 16.2838 0.0274879 -41.9162 0.11856 -8.55782 23.1406 3.64877 -2.32419 -44.6152 2.23757 -5.98373 -18.1704 16.3354 0.0498131 14.2973 0.121015 -9.91474 -6.22563 -4.39712 0.0208119 9.7157 0.0169295 -2.43259 -1.83474 -0.798043 -0.0231736 10.1216 -0.109751 -4.0226 -3.14975 -1.15206 0.0165801 9.71793 -0.0327345 -0.479235 0.0326464 2.51696 0.0858713 10.3834 0.261244 -1.39149 -2.06678 26.2387 -0.192824 9.46648 0.227497 -8.55427 4.51154 32.6901 -3.20276 6.92253 0.000725492 8.99512 3.59483 -9.48081 -12.7912 -0.0131003 0.0285135 54.9146 -65.8529 17.8872 -26.3896 -0.0690826 -0.0537143 27.2902 -1.61581 120.115 -25.9747 -0.123425 -0.00823638 11.4352 -20.0383 6.44014 -2.48905 0.190105 3.12053 28.184 10.7294 19.1592 -3.68274 0 0 -1.3344e-15 1.59028e-15 -10 -2.55832 -5.68434e-14 0 -4.40691e-15 4.77083e-15 -10 -3.22368 0.508421 1.97842 3.97569e-16 6.36111e-15 -1.59028e-15 -5.21684 -0.091368 0.999158 19.9818 0.871897 2.3964 -3.61937 0 5.68434e-14 24 1.59028e-15 3.18055e-15 -2.0521 2.84217e-14 0 20 3.18055e-15 9.54166e-15 -3.38211 0.517263 0.756737 3.97569e-16 6.36111e-15 -1.59028e-15 -5.17411 -0.084 0.313895 20 -3.18055e-15 4.77083e-15 -3.94947 0 5.68434e-14 24 4.77083e-15 -3.18055e-15 -2.47579 -2.84217e-14 0 20 3.97569e-15 9.54166e-15 -3.36516 0.537895 -0.128947 3.97569e-16 6.36111e-15 -1.59028e-15 -4.63474 -0.022105 -0.478947 19.9748 -1.02565 -2.81938 -3.44238 2.84217e-14 0 24 0 3.18055e-15 -2.3881 -2.84217e-14 0 20 6.36111e-15 3.18055e-15 -3.16105 0.469368 -1.20179 3.97569e-16 6.36111e-15 -1.59028e-15 -4.14105 -0.022105 -1.09053 19.7815 -3.00948 -8.30515 -2.75653 5.68434e-14 0 24 6.36111e-15 -0 -1.74189 -2.84217e-14 0 20 0 3.18055e-15 3.2366 6.92359 -0.076766 8.29892 -15.1915 -57.0158 12.6782 0.0321316 -0.0911487 -7.48683 21.847 -115.359 26.5027 -0.00421709 0.128055 33.6156 -11.0962 -36.1524 25.9818 -0.0120629 -0.0769658 -38.0437 -6.3669 -15.8966 2.48905 0.190105 3.12053 -28.184 10.7294 -19.1592 3.68274 0 0 -5.08856e-16 5.96354e-16 10 2.55832 0 0 -1.45012e-15 4.96962e-16 10 3.22368 0.508421 1.97842 2.08724e-15 -8.94531e-16 3.18055e-15 5.21684 -0.091368 0.999158 -19.9818 0.871897 -2.3964 3.61937 -2.84217e-14 0 -24 -1.59028e-15 4.77083e-15 2.0521 -2.84217e-14 0 -20 0 -3.18055e-15 3.38211 0.517263 0.756737 2.08724e-15 -8.94531e-16 3.18055e-15 5.17411 -0.084 0.313895 -20 0 -3.18055e-15 3.94947 -2.84217e-14 0 -24 -3.18055e-15 6.36111e-15 2.47579 2.84217e-14 0 -20 -3.18055e-15 -3.18055e-15 3.36516 0.537895 -0.128947 2.08724e-15 -8.94531e-16 3.18055e-15 4.63474 -0.022105 -0.478947 -19.9748 -1.02565 2.81938 3.44238 0 0 -24 3.18055e-15 3.18055e-15 2.3881 0 0 -20 0 4.77083e-15 3.16105 0.469368 -1.20179 2.08724e-15 -8.94531e-16 3.18055e-15 4.14105 -0.022105 -1.09053 -19.7815 -3.00948 8.30515 2.75653 0 0 -24 0 6.36111e-15 1.74189 -2.84217e-14 0 -20 -9.54166e-15 9.54166e-15 
329.426 85.1135 193.799 28.7762 0.030156 -113.441 -9.29562 -1.5296 -0.0359007 31.7823 -43.5033 25.2882 -0.0281873 -41.8745 0.130307 -6.21458 22.6155 0.517624 0.583597 -37.6656 0.172119 2.90856 -0.229526 40.0628 9.28802 -1.55304 0.0826862 37.0513 -4.20775 16.3933 0.0220399 -41.9193 0.118543 -8.59454 23.3426 3.59323 -2.25697 -44.6255 2.25677 -5.68164 -18.0841 16.6007 0.0512271 14.2974 0.12711 -9.86264 -6.29984 -4.38955 0.0206959 9.71557 0.0157069 -2.41884 -1.85327 -0.794278 -0.0234175 10.1217 -0.106756 -4.00024 -3.18074 -1.14514 0.0158585 9.71793 -0.0328314 -0.473577 0.0510824 2.51931 0.0795774 10.3835 0.258746 -1.36585 -2.0121 26.3584 -0.191516 9.46642 0.219704 -8.47839 4.65258 32.6813 -3.20296 6.92271 0.00160314 8.98124 3.5916 -9.53327 -12.7912 -0.0130377 0.0318732 54.8165 -65.7422 17.5902 -26.3916 -0.0638131 -0.0534412 27.1254 -1.56466 120.263 -25.975 -0.119863 -0.0055352 11.5132 -19.8971 6.72326 -2.48905 0.190105 3.12053 28.184 10.7294 19.1592 -3.68274 0 0 5.61801e-15 -4.77083e-15 -10 -2.55832 5.68434e-14 0 1.33222e-14 0 -10 -3.22368 0.508421 1.97842 4.37326e-15 -3.18055e-15 3.18055e-15 -5.21684 -0.091368 0.999158 19.9818 0.871897 2.3964 -3.61937 8.52651e-14 5.68434e-14 24 0 -3.18055e-15 -2.0521 -2.84217e-14 0 20 -1.59028e-15 -0 -3.38211 0.517263 0.756737 4.37326e-15 -3.18055e-15 3.18055e-15 -5.17411 -0.084 0.313895 20 -3.18055e-15 1.59028e-15 -3.94947 0 5.68434e-14 24 -1.59028e-15 -3.18055e-15 -2.47579 2.84217e-14 0 20 0 3.18055e-15 -3.36516 0.537895 -0.128947 4.37326e-15 -3.18055e-15 3.18055e-15 -4.63474 -0.022105 -0.478947 19.9748 -1.02565 -2.81938 -3.44238 2.84217e-14 -5.68434e-14 24 3.18055e-15 -6.36111e-15 -2.3881 2.84217e-14 0 20 0 -3.18055e-15 -3.16105 0.469368 -1.20179 4.37326e-15 -3.18055e-15 3.18055e-15 -4.14105 -0.022105 -1.09053 19.7815 -3.00948 -8.30515 -2.75653 0 -1.13687e-13 24 6.36111e-15 -6.36111e-15 -1.74189 -2.84217e-14 0 20 6.36111e-15 -3.18055e-15 3.23531 6.92347 -0.0753602 8.29444 -15.1447 -56.9474 12.7167 0.0175996 -0.0708423 -7.42615 21.8464 -115.614 26.4923 -0.010817 0.101416 33.7333 -10.9648 -35.9527 25.9819 -0.0148961 -0.0557317 -38.0144 -6.23857 -16.0194 2.48905 0.190105 3.12053 -28.184 10.7294 -19.1592 3.68274 0 0 -3.93767e-15 4.37326e-15 10 2.55832 2.84217e-14 0 -4.76011e-15 3.52843e-15 10 3.22368 0.508421 1.97842 -8.69683e-16 -8.44835e-16 3.18055e-15 5.21684 -0.091368 0.999158 -19.9818 0.871897 -2.3964 3.61937 0 5.68434e-14 -24 -3.18055e-15 3.18055e-15 2.0521 -2.84217e-14 0 -20 0 4.77083e-15 3.38211 0.517263 0.756737 -8.69683e-16 -8.44835e-16 3.18055e-15 5.17411 -0.084 0.313895 -20 -3.18055e-15 -3.18055e-15 3.94947 -5.68434e-14 -5.68434e-14 -24 1.59028e-15 3.18055e-15 2.47579 0 -5.68434e-14 -20 3.18055e-15 4.77083e-15 3.36516 0.537895 -0.128947 -8.69683e-16 -8.44835e-16 3.18055e-15 4.63474 -0.022105 -0.478947 -19.9748 -1.02565 2.81938 3.44238 0 0 -24 0 3.18055e-15 2.3881 -2.84217e-14 -5.68434e-14 -20 0 4.77083e-15 3.16105 0.469368 -1.20179 -8.69683e-16 -8.44835e-16 3.18055e-15 4.14105 -0.022105 -1.09053 -19.7815 -3.00948 8.30515 2.75653 0 0 -24 -3.18055e-15 6.36111e-15 1.74189 2.84217e-14 0 -20 6.36111e-15 -3.18055e-15 
329.375 85.127 193.756 28.6406 0.193036 -113.977 -9.29681 -1.54528 0.00891148 32.1725 -43.0517 25.5889 -0.0275067 -41.8737 0.124124 -6.24914 22.5861 0.541116 0.594369 -37.6833 0.162788 3.00935 -0.250043 40.206 9.28667 -1.55359 0.0319643 37.1398 -3.82528 16.6339 0.0192383 -41.9207 0.118621 -8.60295 23.5251 3.50349 -2.17928 -44.6495 2.25279 -5.4159 -18.0045 16.8456 0.0291939 14.2975 0.152957 -9.73704 -6.33436 -4.2522 0.0205918 9.71544 0.0145673 -2.38845 -1.85109 -0.763123 -0.0236418 10.1218 -0.104078 -3.95039 -3.17265 -1.09734 0.0151661 9.71793 -0.0329217 -0.469339 0.0627252 2.52255 0.0748194 10.3835 0.24765 -1.34674 -1.98334 26.5405 -0.185413 9.46636 0.210027 -8.41147 4.75072 32.637 -3.20315 6.92289 0.00220676 8.97165 3.59052 -9.53349 -12.791 -0.0139559 0.0345089 54.7129 -65.6261 17.3207 -26.3941 -0.0626252 -0.0480525 27.0253 -1.54081 120.421 -25.9752 -0.118747 -0.00755814 11.5808 -19.7646 6.96604 -2.48905 0.190105 3.12053 28.184 10.7294 19.1592 -3.68274 5.68434e-14 0 -2.31583e-15 -3.97569e-15 -10 -2.55832 -5.68434e-14 0 1.21111e-15 0 -10 -3.22368 0.508421 1.97842 -2.78299e-15 0 2.38542e-15 -5.21684 -0.091368 0.999158 19.9818 0.871897 2.3964 -3.61937 0 -5.68434e-14 24 3.18055e-15 -0 -2.0521 2.84217e-14 5.68434e-14 20 -3.57812e-15 3.18055e-15 -3.38211 0.517263 0.756737 -2.78299e-15 0 2.38542e-15 -5.17411 -0.084 0.313895 20 3.18055e-15 -0 -3.94947 0 0 24 3.18055e-15 6.36111e-15 -2.47579 2.84217e-14 0 20 7.95139e-16 -3.18055e-15 -3.36516 0.537895 -0.128947 -2.78299e-15 0 2.38542e-15 -4.63474 -0.022105 -0.478947 19.9748 -1.02565 -2.81938 -3.44238 0 0 24 -4.77083e-15 -0 -2.3881 2.84217e-14 0 20 1.59028e-15 6.36111e-15 -3.16105 0.469368 -1.20179 -2.78299e-15 0 2.38542e-15 -4.14105 -0.022105 -1.09053 19.7815 -3.00948 -8.30515 -2.75653 0 -5.68434e-14 24 -9.54166e-15 -0 -1.74189 0 0 20 0 -0 3.23392 6.92335 -0.0740119 8.30267 -15.1132 -56.8564 12.8092 -0.0123885 -0.0278922 -7.24741 21.7932 -116.149 26.4421 -0.0326615 0.0730864 33.9103 -10.8456 -35.1463 25.982 -0.0177469 0.0380821 -38.0631 -5.91024 -16.3547 2.48905 0.190105 3.12053 -28.184 10.7294 -19.1592 3.68274 -2.84217e-14 2.84217e-14 1.228e-15 -5.49764e-15 10 2.55832 0 0 -3.16779e-15 -5.27401e-15 10 3.22368 0.508421 1.97842 -1.41013e-15 1.49089e-16 3.18055e-15 5.21684 -0.091368 0.999158 -19.9818 0.871897 -2.3964 3.61937 -2.84217e-14 5.68434e-14 -24 -1.59028e-15 -0 2.0521 -5.68434e-14 0 -20 -6.36111e-15 -0 3.38211 0.517263 0.756737 -1.41013e-15 1.49089e-16 3.18055e-15 5.17411 -0.084 0.313895 -20 -7.95139e-16 3.18055e-15 3.94947 -2.84217e-14 0 -24 -6.36111e-15 -3.18055e-15 2.47579 0 0 -20 -3.18055e-15 3.18055e-15 3.36516 0.537895 -0.128947 -1.41013e-15 1.49089e-16 3.18055e-15 4.63474 -0.022105 -0.478947 -19.9748 -1.02565 2.81938 3.44238 0 0 -24 3.18055e-15 -6.36111e-15 2.3881 0 0 -20 0 -3.18055e-15 3.16105 0.469368 -1.20179 -1.41013e-15 1.49089e-16 3.18055e-15 4.14105 -0.022105 -1.09053 -19.7815 -3.00948 8.30515 2.75653 0 0 -24 3.18055e-15 -6.36111e-15 1.74189 0 0 -20 -3.18055e-15 -4.77083e-15 
